<svg width="128" height="128" viewBox="0 0 128 128" fill="none" xmlns="http://www.w3.org/2000/svg">
<rect width="128" height="128" rx="10" fill="#182B49"/>
<rect x="10" y="98" width="108" height="12" rx="6" fill="#FFCD00"/>
<path d="M28 35.5C28 31.9101 30.9101 29 34.5 29C38.0899 29 41 31.9101 41 35.5V65C41 73.8366 48.1634 81 57 81C65.8366 81 73 73.8366 73 65V35.5C73 31.9101 75.9101 29 79.5 29C83.0899 29 86 31.9101 86 35.5V65C86 81.0163 73.0163 94 57 94C40.9837 94 28 81.0163 28 65V35.5Z" fill="white"/>
<path d="M104 45.2266C101.447 41.4222 96.7639 39 91.5 39C83.6631 39 77.115 44.3695 75.3119 51.625C74.8758 53.3804 76.2835 55 78.0922 55H86.4266C88.0471 55 89.3675 53.7787 90.0862 52.3263C90.6177 51.252 91.7243 50.5 93 50.5C94.933 50.5 96.5 52.067 96.5 54C96.5 55.933 94.933 57.5 93 57.5H88C80.8203 57.5 75 63.3203 75 70.5C75 77.6797 80.8203 83.5 88 83.5H91.5C96.7639 83.5 101.447 81.0778 104 77.2734V68.3633C102.628 70.7294 100.071 72.3214 97.1429 72.4883C96.8286 72.5062 96.4955 72.5156 96.1429 72.5156H88C86.8914 72.5156 86 71.6242 86 70.5156C86 69.4071 86.8914 68.5156 88 68.5156H96.1429C100.482 68.5156 104 65.0621 104 60.8037V45.2266Z" fill="#FFCD00"/>
</svg>
